<svg id="Capa_1" enable-background="new 0 0 512 512" height="512" viewBox="0 0 512 512" width="512" xmlns="http://www.w3.org/2000/svg"><g><path d="m437.019 74.981c-48.352-48.353-112.639-74.981-181.019-74.981s-132.667 26.628-181.019 74.981c-48.353 48.352-74.981 112.639-74.981 181.019s26.628 132.667 74.981 181.019c48.352 48.353 112.639 74.981 181.019 74.981s132.667-26.628 181.019-74.981c48.353-48.352 74.981-112.639 74.981-181.019s-26.628-132.667-74.981-181.019zm-417.019 181.019c0-9.878.604-19.664 1.792-29.315 3.267-.601 6.455-1.751 9.421-3.464l69.188-39.946c1.551-.895 2.992-1.929 4.331-3.063l52.93 30.559c-.313 1.727-.487 3.492-.487 5.283v79.892c0 1.791.174 3.555.487 5.283l-52.93 30.559c-1.339-1.135-2.78-2.168-4.331-3.063l-69.188-39.946c-2.966-1.712-6.155-2.863-9.421-3.464-1.188-9.651-1.792-19.437-1.792-29.315zm377.268-93.108-52.93 30.559c-1.339-1.135-2.78-2.168-4.331-3.063l-69.188-39.946c-1.551-.895-3.166-1.627-4.818-2.219v-61.118c1.652-.593 3.267-1.324 4.818-2.219l69.188-39.946c2.991-1.727 5.603-3.933 7.767-6.489 17.97 7.583 34.989 17.428 50.712 29.385-1.111 3.126-1.706 6.46-1.706 9.881v79.892c0 1.792.175 3.556.488 5.283zm-225.275-117.952 69.188 39.946c1.551.895 3.166 1.627 4.818 2.219v61.118c-1.652.593-3.267 1.324-4.818 2.219l-69.188 39.946c-1.551.895-2.992 1.929-4.331 3.063l-52.93-30.559c.313-1.727.487-3.492.487-5.283v-79.891c0-3.421-.595-6.755-1.705-9.881 15.722-11.957 32.742-21.803 50.712-29.385 2.165 2.555 4.776 4.761 7.767 6.488zm-57.261 304.168 52.93-30.559c1.339 1.135 2.78 2.168 4.331 3.063l69.188 39.946c1.551.895 3.166 1.627 4.818 2.219v61.118c-1.652.593-3.267 1.324-4.818 2.219l-69.188 39.946c-2.991 1.727-5.603 3.933-7.767 6.489-17.97-7.583-34.989-17.428-50.712-29.385 1.111-3.126 1.705-6.46 1.705-9.881v-79.893c.001-1.791-.174-3.555-.487-5.282zm225.275 117.952-69.188-39.946c-1.551-.895-3.166-1.627-4.818-2.219v-61.118c1.652-.593 3.267-1.324 4.818-2.219l69.188-39.946c1.551-.895 2.992-1.929 4.331-3.063l52.93 30.559c-.313 1.727-.488 3.492-.488 5.283v79.892c0 3.421.595 6.755 1.706 9.881-15.723 11.957-32.742 21.803-50.712 29.385-2.165-2.556-4.776-4.762-7.767-6.489zm140.78-178.282-69.188 39.946c-1.551.895-2.992 1.929-4.331 3.063l-52.929-30.559c.313-1.727.487-3.492.487-5.283v-79.892c0-1.791-.174-3.556-.487-5.283l52.929-30.559c1.339 1.135 2.78 2.168 4.331 3.063l69.188 39.946c2.966 1.712 6.155 2.863 9.421 3.464 1.188 9.652 1.792 19.438 1.792 29.316s-.604 19.664-1.792 29.314c-3.267.601-6.455 1.752-9.421 3.464z"/></g></svg>