<?xml version="1.0" standalone="no"?>
<svg xmlns:xlink="http://www.w3.org/1999/xlink" id="wave" style="transform:rotate(0deg); transition: 0.3s" viewBox="0 0 1440 170" version="1.1" xmlns="http://www.w3.org/2000/svg"><defs><linearGradient id="sw-gradient-0" x1="0" x2="0" y1="1" y2="0"><stop stop-color="rgba(221, 221, 221, 1)" offset="0%"/><stop stop-color="rgba(221, 221, 221, 1)" offset="100%"/></linearGradient></defs><path style="transform:translate(0, 0px); opacity:1" fill="url(#sw-gradient-0)" d="M0,17L30,22.7C60,28,120,40,180,48.2C240,57,300,62,360,70.8C420,79,480,91,540,82.2C600,74,660,45,720,31.2C780,17,840,17,900,19.8C960,23,1020,28,1080,39.7C1140,51,1200,68,1260,62.3C1320,57,1380,28,1440,39.7C1500,51,1560,102,1620,102C1680,102,1740,51,1800,31.2C1860,11,1920,23,1980,31.2C2040,40,2100,45,2160,62.3C2220,79,2280,108,2340,107.7C2400,108,2460,79,2520,68C2580,57,2640,62,2700,65.2C2760,68,2820,68,2880,65.2C2940,62,3000,57,3060,70.8C3120,85,3180,119,3240,121.8C3300,125,3360,96,3420,82.2C3480,68,3540,68,3600,65.2C3660,62,3720,57,3780,62.3C3840,68,3900,85,3960,102C4020,119,4080,136,4140,127.5C4200,119,4260,85,4290,68L4320,51L4320,170L4290,170C4260,170,4200,170,4140,170C4080,170,4020,170,3960,170C3900,170,3840,170,3780,170C3720,170,3660,170,3600,170C3540,170,3480,170,3420,170C3360,170,3300,170,3240,170C3180,170,3120,170,3060,170C3000,170,2940,170,2880,170C2820,170,2760,170,2700,170C2640,170,2580,170,2520,170C2460,170,2400,170,2340,170C2280,170,2220,170,2160,170C2100,170,2040,170,1980,170C1920,170,1860,170,1800,170C1740,170,1680,170,1620,170C1560,170,1500,170,1440,170C1380,170,1320,170,1260,170C1200,170,1140,170,1080,170C1020,170,960,170,900,170C840,170,780,170,720,170C660,170,600,170,540,170C480,170,420,170,360,170C300,170,240,170,180,170C120,170,60,170,30,170L0,170Z"/></svg>